# xmcd CD database file
#
# Track frame offsets:
#	150
#	18616
#	34080
#	47134
#	61223
#	77260
#	93743
#	108517
#	122577
#	150059
#
# Disc length: 2245 seconds
#
# Revision: 0
# Processed by: cddbd v1.5.1PL0 Copyright (c) Steve Scherf et al.
# Submitted via: CDex 1.51
#
DISCID=6f08c30a
DTITLE=Jeremy Taylor and the Wasted Years - Black Balloons
DYEAR=2005
DGENRE=Merengue
TTITLE0=if you want me to burn
TTITLE1=idiot heart
TTITLE2=little doll
TTITLE3=blessed
TTITLE4=duress
TTITLE5=everything reminds me of you
TTITLE6=headstrong
TTITLE7=queen of goodbyes
TTITLE8=together now
TTITLE9=hush
EXTD=YEAR: 2005
EXTT0=
EXTT1=
EXTT2=
EXTT3=
EXTT4=
EXTT5=
EXTT6=
EXTT7=
EXTT8=
EXTT9=
PLAYORDER=
